Coordinates
version=1
nRows=10
nColumns=34
inDegrees=yes

Units are S.I. units (second, meters, Newtons, ...)
If the header above contains a line with 'inDegrees', this indicates whether rotational values are in degrees (yes) or radians (no).

endheader
time	pelvis_tilt	pelvis_list	pelvis_rotation	pelvis_tx	pelvis_ty	pelvis_tz	hip_flexion_r	hip_adduction_r	hip_rotation_r	knee_angle_r	ankle_angle_r	subtalar_angle_r	mtp_angle_r	hip_flexion_l	hip_adduction_l	hip_rotation_l	knee_angle_l	ankle_angle_l	subtalar_angle_l	mtp_angle_l	lumbar_extension	lumbar_bending	lumbar_rotation	arm_flex_r	arm_add_r	arm_rot_r	elbow_flex_r	pro_sup_r	arm_flex_l	arm_add_l	arm_rot_l	elbow_flex_l	pro_sup_l
      1.71666670	     -3.59626395	      1.16954672	     -1.09374816	     -0.00061450	      1.21835236	     -0.05961448	     -2.93379355	     -0.74520430	     -5.25165009	      1.64039430	     19.04342102	      3.70568592	      0.00000000	     -1.83030159	      2.10511232	    -20.14650732	      7.06779085	     16.78844737	      5.80732044	      0.00000000	      4.32483339	     -0.52844057	      0.93035266	      4.66703553	     -7.87783050	     23.82705012	     19.75826473	     74.38694221	      0.73418907	    -11.06411979	     28.99119100	     25.78046815	     66.21705692
      1.73333330	     -3.66042299	      1.20595510	     -1.18504688	     -0.00189454	      1.21701704	     -0.05946909	     -2.85347210	     -0.77847871	     -5.34448583	      1.57077810	     18.94809417	      3.66060688	      0.00000000	     -1.70282652	      2.16682996	    -20.19976246	      7.12783148	     16.70864837	      5.72445431	      0.00000000	      4.07330563	     -0.53446130	      0.94165217	      4.54311527	     -7.99515725	     23.79573366	     19.67852130	     74.35258285	      0.57019636	    -11.17301735	     28.97762028	     25.66966358	     66.20892264
      1.75000000	     -3.67742165	      1.25222518	     -1.12919236	     -0.00167973	      1.21679461	     -0.05969201	     -2.81833805	     -0.82464813	     -5.36998235	      1.61918518	     18.80580101	      3.65199871	      0.00000000	     -1.59140121	      2.21843429	    -20.25113792	      7.25995027	     16.60908931	      5.60815393	      0.00000000	      3.94478587	     -0.60132524	      0.97595296	      4.53677203	     -8.10100654	     23.74425784	     19.63485552	     74.30231779	      0.47260815	    -11.26430835	     28.95058928	     25.56658288	     66.19759861
      1.76666670	     -3.68847417	      1.25421373	     -1.14928023	     -0.00155695	      1.21542160	     -0.05954614	     -2.83472358	     -0.80766747	     -5.37309158	      1.63071511	     18.80150044	      3.64974009	      0.00000000	     -1.57784302	      2.23885082	    -20.25038552	      7.26773266	     16.60592153	      5.60329565	      0.00000000	      3.93661463	     -0.60530095	      0.96929370	      4.53246513	     -8.10587436	     23.74163481	     19.63181486	     74.29962775	      0.47623573	    -11.26729404	     28.94874498	     25.56348964	     66.19703743
      1.78333330	     -3.99733729	      1.29723091	     -1.26817656	     -0.00100620	      1.21545916	     -0.05858975	     -2.33665037	     -0.82671537	     -4.95068381	      1.94323330	     18.52629906	      2.91953424	      0.00000000	     -1.09408076	      2.25418003	    -19.54368520	      7.59926536	     15.92696542	      3.60922987	      0.00000000	      4.08195520	     -0.69888362	      0.90273448	      4.49960377	     -8.06591040	     22.79093937	     19.46698874	     73.17179578	      0.50611130	    -11.15279751	     28.37566730	     24.67456880	     65.99129679
      1.80000000	     -4.01866467	      1.30709201	     -1.27209146	     -0.00191625	      1.21448266	     -0.05895556	     -2.34862780	     -0.81958786	     -4.95163586	      1.94906536	     18.52581171	      2.91940398	      0.00000000	     -1.10357817	      2.25374037	    -19.54380766	      7.60331781	     15.92672908	      3.60912725	      0.00000000	      4.08071387	     -0.69898137	      0.90275078	      4.49805184	     -8.06652210	     22.79076094	     19.46637892	     73.17146548	      0.50513719	    -11.15411181	     28.37545990	     24.67395342	     65.99123810
      1.81666670	     -4.05814098	      1.32303343	     -1.31431922	     -0.00123784	      1.21459722	     -0.05902922	     -2.24998335	     -0.82398467	     -4.96107775	      1.96036038	     18.52680128	      2.91801072	      0.00000000	     -1.08093775	      2.27095717	    -19.55942251	      7.64225072	     15.94284316	      3.58531460	      0.00000000	      3.91412458	     -0.71819061	      0.89904730	      4.38071017	     -8.22024617	     22.76193552	     19.39591068	     73.14175657	      0.41068284	    -11.30595086	     28.35337162	     24.60824364	     65.98569896
      1.83333330	     -4.06595574	      1.32297265	     -1.24804453	     -0.00154044	      1.21529762	     -0.05952976	     -2.18636652	     -0.82937724	     -4.91192662	      2.03069861	     18.52132143	      2.94805491	      0.00000000	     -1.05101922	      2.26186611	    -19.57744348	      7.64724687	     15.96840285	      3.55145046	      0.00000000	      3.84604969	     -0.73088087	      0.91490456	      4.34351427	     -8.31703991	     22.73471652	     19.36409301	     73.11394976	      0.36564035	    -11.40163818	     28.33340864	     24.57424518	     65.98120593
      1.85000000	     -4.05283066	      1.33031740	     -1.24991461	     -0.00111762	      1.21538034	     -0.05988950	     -2.17748405	     -0.82697720	     -4.91145411	      2.02810121	     18.52151686	      2.94821990	      0.00000000	     -1.04667407	      2.25709582	    -19.57724322	      7.64532179	     15.96882412	      3.55098055	      0.00000000	      3.84465908	     -0.73123031	      0.91445385	      4.34213750	     -8.31838702	     22.73438846	     19.36337196	     73.11361085	      0.36519428	    -11.40314025	     28.33312361	     24.57375389	     65.98114818
      1.86666670	     -4.07794502	      1.30323689	     -1.26585535	     -0.00099156	      1.21591191	     -0.06009355	     -2.03650584	     -0.82850476	     -4.85265420	      2.16426947	     18.52121530	      2.96842110	      0.00000000	     -0.99682559	      2.23877580	    -19.60307711	      7.64750448	     16.02346283	      3.48263686	      0.00000000	      3.62879787	     -0.71861230	      0.84776284	      4.11061756	     -8.57332630	     22.69175828	     19.23614698	     73.07820005	      0.24679503	    -11.60036667	     28.30278493	     24.48922120	     65.97453036
